<svg xmlns="http://www.w3.org/2000/svg" width="298.236" height="55" viewBox="0 0 298.236 55">
  <g id="Grupo_55" data-name="Grupo 55" transform="translate(-40 -10)">
    <g id="Grupo_42" data-name="Grupo 42" transform="translate(0 -2)">
      <path id="Trazado_1" data-name="Trazado 1" d="M713.541,175.646V156.723a9.465,9.465,0,0,1,9.738-9.29v-.053a1.583,1.583,0,0,0,1.4-1.7,1.651,1.651,0,0,0-1.4-1.744v-.05a13.469,13.469,0,0,0-9.04,4,13,13,0,0,0-4.339,8.838l-1.7,19.072v.15a11.822,11.822,0,0,0,3.144,8.892,11.41,11.41,0,0,0,8.638,3.64q.806,0,1.649.029c.569.013,1.118,0,1.651-.029v-.047a1.589,1.589,0,0,0,1.4-1.7,1.657,1.657,0,0,0-1.4-1.747v-.049a.805.805,0,0,0-.55,0,9.377,9.377,0,0,1-9.187-9.287" transform="translate(-668.18 -121.512)" fill="#1e1e1e"/>
      <path id="Trazado_2" data-name="Trazado 2" d="M811.472,147.417a1.864,1.864,0,0,1-1.549-1.7,1.473,1.473,0,0,1,1.25-1.75v-.047q.8-.051,1.618-.026t1.623.026a12.933,12.933,0,0,1,9.03,3.694,12.018,12.018,0,0,1,3.891,8.987v19.074a12.031,12.031,0,0,1-3.644,8.84,12.43,12.43,0,0,1-8.629,3.992v-.048a1.854,1.854,0,0,1-1.546-1.7,1.387,1.387,0,0,1,1.247-1.749v-.048a8.58,8.58,0,0,0,8.928-9.29L822,156.757a10.505,10.505,0,0,0-10.028-9.29.663.663,0,0,1-.5,0Z" transform="translate(-650.603 -121.512)" fill="#1e1e1e"/>
      <path id="Trazado_3" data-name="Trazado 3" d="M740.175,176.128,738.1,177.4l1.435-.639a1.245,1.245,0,0,0,.637-.636m7.319-5.889-.159,1.272.477.8-.794.8-.157.637.474-.159,1.276-1.59a6.686,6.686,0,0,0-1.117-1.752m-11.008-2.546-4.617.8-.316,1.113.316,5.893a1.112,1.112,0,0,0,1.116.79l1.592-.954,4-1.433,4.778-3.025-.8-1.43-1.273-1.434Zm-3.186-3.659a1.708,1.708,0,0,0-1.905,1.746l5.435-1.746Zm-4.135-28.994a3.743,3.743,0,0,1,1.114,1.91l-.322,4.932.639,2.068.636,18.966.636.162,2.23-.481,4-.314,2.867.633,2.071.8,3.5,2.068,3.981,5.575-.321,1.43-.953,1.751-1.595,1.27-9.231,4.618-6.393,2.068v1.271l-.8.137.636,4.64-1.589-.98-.953-4.589a2.3,2.3,0,0,0-1.594-1.276l-1.117-1.589,1.914-1.751-.957-7.481-.957-.158-.315.318-1.725.322-1.461-.322.5-1.432,3.639-1.908v-1.432l-.48.156.318-1.907-.156-18.012,1.11-4.457.481-4.777Z" transform="translate(-665.6 -123.041)" fill="#1e1e1e"/>
      <path id="Trazado_4" data-name="Trazado 4" d="M753.353,173.075l1.564,2.282,3.157,1.033-2.628-1.38a10.511,10.511,0,0,1-2.093-1.935m9.949-18.833,2.094.531,3.663,2.255.872,1.22L768,157.742l-1.565.507L768,160.874l-.343.347-.877-.347-1.379-1.566,1.379,3.474-.875.718-1.377-2.971-1.567-1.221-2.094-.534-2.442.534-1.752,1.221-1.407,1.567-1.908,3.846v2.6l.69,2.093,2.972,2.972,1.91,1.033,2.279.529,2.627.189,2.254-.718,2.974-2.944,1.034-1.935.872.874,1.061-1.378-.715,2.253-1.033,1.91.53.532,2.255-2.256-.185,1.22-.851,1.913-3.155,2.784-1.754,1.06-1.563,1.38-2.095.342-5.757.189-4.7-1.221-1.749-1.219-2.6-3.317-1.41-4.536.693-5.068.874-2.1,2.281-3.475,1.568-1.4,3.659-2.256,4.537-1.4Z" transform="translate(-661.429 -119.723)" fill="#0088ce"/>
      <path id="Trazado_5" data-name="Trazado 5" d="M786.087,178.471l-1.806.45,1.064.453h1.8Zm-11.169-4.217-.742,1.063,1.062.585,3,.608-1.35-.744a4.045,4.045,0,0,1-1.966-1.512m8.622-3.022-5.756,1.352-1.351,1.061.767.449,2.707.773,2.573.13,3.607-.452.449-3.022a21.151,21.151,0,0,0-3-.292m1.96-12.388,1.812,2.865-.614-1.8Zm2.1-.609a1.628,1.628,0,0,0,.452.77Zm-3.157-.294.292.294a.758.758,0,0,0-.292-.294m-3.02-2.119-1.063.45h1.217l2.254.452-.29-.452Zm.606-1.8,2.55.451,2.12.9,1.671,1.356,1.513,1.671.9,2.12.609,2.412v7.561l.742.451,1.516,1.512-.452,2.254-1.673,1.353-.578,2.125v1.058l1.48-.32,3.635-1.511-2.124,1.831-2.254.9a3.242,3.242,0,0,0-1.353,1.644l-1.83,1.22-1.034-1.988-2.282-.714-7.849-.611-3.023-.611-1.937-1.06-2.279-1.963v-1.513a3.356,3.356,0,0,1,1.217-1.8l3.928-2.122,7.08-1.961,4.379-.294v-3.788l-.61-2.415-1.193-1.8-1.355-1.514-3.025-1.512-1.353.158-2.12.9-1.673,1.35-2.868,3.183-1.192.3-.319-.3,1.675-2.412,3.473-3.474-3.185,1.8-.744-.157.9-1.036-.29-.319-2.411,1.512-.774,1.966-.448-1.516,1.508-1.642,1.8-1.064Z" transform="translate(-657.638 -119.762)" fill="#0088ce"/>
      <path id="Trazado_6" data-name="Trazado 6" d="M816.784,162.864l.424,1.591a3.6,3.6,0,0,0-.424-1.591m-1.723-2.02,2.016.453a10.74,10.74,0,0,0-2.016-.453m-14.833-1.723-1.561,2.016,3.023-.843a7.334,7.334,0,0,0-1.462-1.173m-5.728-4.88.847,1.14.293,1.461-.159,1.723.292,3.023,2.6-2.73,2.151-1.594,1.3-.29,1.3.713,1.007,1.011.559,1.165,1.746,5.464.721-1.167,2.865-2.572,7.188-2.89,1.431,1.3.718,1.006.878,2.865v6.473l-.427,2.893a3.868,3.868,0,0,1-1.169,2.6l-.849.715-.288,1.435a4.526,4.526,0,0,1-2.015.586l-.3-1.01.714-11.672-.554-3.156-.449-.292-1.99.717-2.309,1.43-2.441,2.89-1.729,3.744-.739,6.6-.718,2.864-1.005.584L803.12,180l-.874-.423-.131-1.752.714-2.865.135-6.468-.558-4.754-.584-1.139-1.139-.742-1.3.452-2.016,1.563-.874,1.014-.556,1.161.715,12.524-.293.262-.876-.713-.424,1.007-1.009-.426-.556,1.141.131,2.438-.293.157-.846-1.457-.451-1.275-.718-4.454-.426-11.645.426-6.63.587-1.3.289.719v-.719l.716-.425.585,3.45.131-1.724a5.759,5.759,0,0,1,.876-2.734" transform="translate(-653.889 -119.723)" fill="#0088ce"/>
    </g>
    <g id="Grupo_45" data-name="Grupo 45" transform="translate(-14 -19.348)">
      <g id="Grupo_43" data-name="Grupo 43" transform="translate(211.063 43.348)">
        <path id="Trazado_7" data-name="Trazado 7" d="M720.419,191.756a6.507,6.507,0,0,0,.658,3.421,1.639,1.639,0,0,0,1.466.734,1.671,1.671,0,0,0,1.479-.734,6.546,6.546,0,0,0,.64-3.421,6.162,6.162,0,0,0-.609-3.284,1.817,1.817,0,0,0-1.539-.877q-2.094,0-2.094,4.161m4.242,8.061v-4.676a2.059,2.059,0,0,1-2.28,1.68q-3.128,0-3.13-5.065t3.1-5.074a2.353,2.353,0,0,1,2.392,1.606h.033V186.9h.987v12.918Z" transform="translate(-696.516 -183.407)" fill="#0088ce"/>
        <path id="Trazado_10" data-name="Trazado 10" d="M710.188,193.47a6.6,6.6,0,0,0,.644,3.436,1.853,1.853,0,0,0,2.954,0,6.749,6.749,0,0,0,.642-3.436,6.653,6.653,0,0,0-.642-3.421,1.867,1.867,0,0,0-2.954,0,6.562,6.562,0,0,0-.644,3.421m-1.1,4.857V185.284h1.1v4.806a2.06,2.06,0,0,1,2.278-1.678c2.087,0,3.134,1.678,3.134,5.058s-1.035,5.081-3.11,5.081a2.43,2.43,0,0,1-1.508-.5,2.366,2.366,0,0,1-.868-1.336h-.036v1.609Z" transform="translate(-709.089 -185.136)" fill="#0088ce"/>
        <path id="Trazado_11" data-name="Trazado 11" d="M717.493,193.166v-2.047h-.036c-.085.246-.481.456-1.17.638l-.913.244a1.944,1.944,0,0,0-1.667,2.011,2.186,2.186,0,0,0,.414,1.378,1.352,1.352,0,0,0,1.128.519,2.017,2.017,0,0,0,1.629-.732,3.036,3.036,0,0,0,.615-2.011m-3.539-3.376h-1.107c0-2.083,1-3.108,3-3.108,1.828,0,2.734.857,2.734,2.571v5.736c0,.544.195.808.575.808h.3v.8a1.528,1.528,0,0,1-.51.116,1.84,1.84,0,0,1-1.02-.222,1.133,1.133,0,0,1-.385-.987v-.329h-.031a2.389,2.389,0,0,1-2.508,1.644c-1.645,0-2.475-.913-2.475-2.738a2.517,2.517,0,0,1,1.962-2.691l2.061-.582a1.337,1.337,0,0,0,.832-.526,3.3,3.3,0,0,0,.1-1.011,1.484,1.484,0,0,0-1.682-1.678c-1.242,0-1.857.725-1.857,2.195" transform="translate(-704.826 -183.407)" fill="#0088ce"/>
        <path id="Trazado_12" data-name="Trazado 12" d="M719.587,192.38l-1.532-.607a2.447,2.447,0,0,1-1.866-2.3c0-1.861.966-2.8,2.888-2.8a2.369,2.369,0,0,1,2.665,2.7v.271h-1.094v-.271c0-1.188-.528-1.785-1.586-1.785-1.177,0-1.774.548-1.774,1.642a1.7,1.7,0,0,0,1.318,1.627l1.588.6A2.492,2.492,0,0,1,722,193.94a2.842,2.842,0,0,1-.729,2.058,2.981,2.981,0,0,1-2.266.826,2.6,2.6,0,0,1-2.98-3.016v-.313h1.1v.257c0,1.434.615,2.159,1.865,2.159a1.972,1.972,0,0,0,1.392-.472,1.6,1.6,0,0,0,.528-1.266,1.824,1.824,0,0,0-1.322-1.792" transform="translate(-700.507 -183.407)" fill="#0088ce"/>
        <path id="Trazado_13" data-name="Trazado 13" d="M723.048,194.108v-7.329h1.1v6.833a2.757,2.757,0,0,0,.4,1.678,1.58,1.58,0,0,0,1.287.5,1.957,1.957,0,0,0,1.525-.685,2.684,2.684,0,0,0,.593-1.8v-6.524h1.1v9.7h-.982v-1.347h-.038a2.645,2.645,0,0,1-2.492,1.573q-2.487,0-2.487-2.6" transform="translate(-691.818 -183.287)" fill="#0088ce"/>
        <path id="Trazado_14" data-name="Trazado 14" d="M727.666,190.884h4.107a4.872,4.872,0,0,0-.53-2.562,1.7,1.7,0,0,0-1.521-.725,1.662,1.662,0,0,0-1.508.725,4.849,4.849,0,0,0-.548,2.562m4.107,2.5h1.105a4.236,4.236,0,0,1-.953,2.506,2.762,2.762,0,0,1-2.174.931q-3.249,0-3.253-5.083c0-3.378,1.11-5.059,3.333-5.059a2.628,2.628,0,0,1,2.361,1.141,6.6,6.6,0,0,1,.754,3.568v.4h-5.28v.456q0,3.655,2.065,3.658c1.184,0,1.862-.841,2.042-2.524" transform="translate(-687.549 -183.407)" fill="#0088ce"/>
        <path id="Trazado_15" data-name="Trazado 15" d="M737.137,193.387h1.1a4.285,4.285,0,0,1-.944,2.506,2.7,2.7,0,0,1-2.15.931q-3.249,0-3.25-5.083c0-3.378,1.119-5.059,3.346-5.059,1.891,0,2.884,1.027,3,3.108h-1.1c-.128-1.468-.757-2.193-1.9-2.193a1.705,1.705,0,0,0-1.539.788,6.617,6.617,0,0,0-.64,3.372,6.491,6.491,0,0,0,.658,3.437,1.581,1.581,0,0,0,1.409.718c1.164,0,1.828-.841,2.014-2.524" transform="translate(-680.881 -183.407)" fill="#1e1e1e"/>
        <path id="Trazado_16" data-name="Trazado 16" d="M736.439,190.884h4.108a4.887,4.887,0,0,0-.531-2.562,1.71,1.71,0,0,0-1.523-.725,1.67,1.67,0,0,0-1.51.725,4.832,4.832,0,0,0-.544,2.562m4.108,2.5h1.1a4.151,4.151,0,0,1-.953,2.506,2.747,2.747,0,0,1-2.172.931q-3.254,0-3.26-5.083c0-3.378,1.114-5.059,3.345-5.059a2.637,2.637,0,0,1,2.36,1.141,6.607,6.607,0,0,1,.752,3.568v.4h-5.278v.456q0,3.655,2.063,3.658,1.772,0,2.045-2.524" transform="translate(-676.708 -183.407)" fill="#1e1e1e"/>
        <path id="Trazado_17" data-name="Trazado 17" d="M738.923,196.6v-9.7h.984v1.354h.031a2.639,2.639,0,0,1,2.493-1.571q2.487,0,2.49,2.591V196.6h-1.1v-7.009c0-1.336-.557-1.994-1.664-1.994a1.913,1.913,0,0,0-1.55.689,2.609,2.609,0,0,0-.582,1.79V196.6Z" transform="translate(-672.176 -183.407)" fill="#1e1e1e"/>
        <path id="Trazado_18" data-name="Trazado 18" d="M743.465,196.377v-7.195h-1.332v-.917h1.332v-2.687h1.1v2.687h1.721v.917h-1.721v6.956a.911.911,0,0,0,1.038,1.025,2.1,2.1,0,0,0,.683-.112v.913a1.762,1.762,0,0,1-.769.116,2.581,2.581,0,0,1-1.594-.371,1.618,1.618,0,0,1-.458-1.331" transform="translate(-668.204 -184.773)" fill="#1e1e1e"/>
        <path id="Trazado_19" data-name="Trazado 19" d="M745.508,190.884h4.11a4.919,4.919,0,0,0-.53-2.562,1.718,1.718,0,0,0-1.524-.725,1.658,1.658,0,0,0-1.506.725,4.8,4.8,0,0,0-.55,2.562m4.11,2.5h1.1a4.22,4.22,0,0,1-.953,2.506,2.749,2.749,0,0,1-2.17.931q-3.259,0-3.255-5.083c0-3.378,1.112-5.059,3.336-5.059a2.628,2.628,0,0,1,2.358,1.141,6.558,6.558,0,0,1,.756,3.568v.4h-5.28v.456q0,3.655,2.065,3.658,1.772,0,2.045-2.524" transform="translate(-665.476 -183.407)" fill="#1e1e1e"/>
        <path id="Trazado_20" data-name="Trazado 20" d="M748,196.6v-9.7h1.1v1.513a2.489,2.489,0,0,1,2.484-1.73,1.382,1.382,0,0,1,.387.051v1.094a2.769,2.769,0,0,0-.534-.051,2.141,2.141,0,0,0-1.624.676,2.865,2.865,0,0,0-.712,2.083V196.6Z" transform="translate(-660.947 -183.407)" fill="#1e1e1e"/>
        <path id="Trazado_21" data-name="Trazado 21" d="M753.147,198.409v-8.781h-1.335v-.917h1.335v-1.15a2.929,2.929,0,0,1,.367-1.662,2,2,0,0,1,1.749-.68,4.478,4.478,0,0,1,.7.056v.915a2.121,2.121,0,0,0-.539-.058,1.169,1.169,0,0,0-.9.313,1.672,1.672,0,0,0-.284,1.116v1.15h1.723v.917h-1.723v8.781Z" transform="translate(-656.229 -185.218)" fill="#1e1e1e"/>
        <path id="Trazado_22" data-name="Trazado 22" d="M755.172,191.74q0,4.168,2.179,4.17t2.168-4.17c0-2.759-.721-4.146-2.168-4.146s-2.179,1.387-2.179,4.146m-1.17,0c0-3.38,1.118-5.059,3.349-5.059s3.338,1.678,3.338,5.059-1.112,5.081-3.338,5.081S754,195.128,754,191.74" transform="translate(-653.519 -183.407)" fill="#1e1e1e"/>
        <path id="Trazado_23" data-name="Trazado 23" d="M757.711,196.6v-9.7h1.1v1.513a2.482,2.482,0,0,1,2.486-1.73,1.458,1.458,0,0,1,.389.051v1.094a2.794,2.794,0,0,0-.537-.051,2.15,2.15,0,0,0-1.626.676,2.884,2.884,0,0,0-.711,2.083V196.6Z" transform="translate(-648.93 -183.407)" fill="#1e1e1e"/>
      </g>
      <g id="Grupo_44" data-name="Grupo 44" transform="translate(210.849 64.962)">
        <path id="Trazado_8" data-name="Trazado 8" d="M770.747,191.756c0-2.774-.7-4.161-2.08-4.161a1.823,1.823,0,0,0-1.591.949,6.453,6.453,0,0,0-.573,3.213,6.6,6.6,0,0,0,.645,3.421,1.859,1.859,0,0,0,2.959,0,6.627,6.627,0,0,0,.64-3.421m-5.343,8.061V186.9h.993v1.389h.033a2.36,2.36,0,0,1,2.4-1.606q3.09,0,3.089,5.074t-3.123,5.065a2.074,2.074,0,0,1-2.292-1.68v4.676Z" transform="translate(-757.146 -183.431)" fill="#1e1e1e"/>
        <path id="Trazado_9" data-name="Trazado 9" d="M774.38,191.756c0-2.774-.7-4.161-2.092-4.161a1.809,1.809,0,0,0-1.584.949,6.341,6.341,0,0,0-.579,3.213,6.6,6.6,0,0,0,.644,3.421,1.864,1.864,0,0,0,2.965,0,6.6,6.6,0,0,0,.646-3.421m-5.347,8.061V186.9h.989v1.389h.036a2.354,2.354,0,0,1,2.394-1.606q3.088,0,3.083,5.074t-3.116,5.065a2.08,2.08,0,0,1-2.293-1.68v4.676Z" transform="translate(-752.656 -183.431)" fill="#1e1e1e"/>
        <path id="Trazado_24" data-name="Trazado 24" d="M766.666,193.166v-2.047h-.031c-.083.246-.477.456-1.173.638l-.913.244a1.946,1.946,0,0,0-1.666,2.011,2.146,2.146,0,0,0,.416,1.378,1.345,1.345,0,0,0,1.123.519,2.038,2.038,0,0,0,1.633-.732,3.021,3.021,0,0,0,.611-2.011m-3.544-3.376h-1.092c0-2.083.991-3.108,2.994-3.108,1.825,0,2.743.857,2.743,2.571v5.736c0,.544.19.808.563.808h.309v.8a1.515,1.515,0,0,1-.508.116,1.789,1.789,0,0,1-1.018-.222,1.11,1.11,0,0,1-.389-.987v-.329h-.038a2.369,2.369,0,0,1-2.5,1.644q-2.466,0-2.47-2.738a2.509,2.509,0,0,1,1.962-2.691l2.063-.582a1.3,1.3,0,0,0,.821-.526,3,3,0,0,0,.107-1.011,1.484,1.484,0,0,0-1.682-1.678c-1.235,0-1.862.725-1.862,2.195" transform="translate(-761.713 -183.431)" fill="#1e1e1e"/>
        <rect id="Rectángulo_1" data-name="Rectángulo 1" width="1.094" height="13.043" transform="translate(24.677 0.123)" fill="#1e1e1e"/>
        <path id="Trazado_25" data-name="Trazado 25" d="M774.246,198.326h1.092v-9.7h-1.092Zm0-11.18h1.092v-1.862h-1.092Z" transform="translate(-746.206 -185.16)" fill="#1e1e1e"/>
        <path id="Trazado_26" data-name="Trazado 26" d="M776.7,190.884h4.117a5.06,5.06,0,0,0-.532-2.562,1.726,1.726,0,0,0-1.524-.725,1.664,1.664,0,0,0-1.51.725,4.753,4.753,0,0,0-.551,2.562m4.117,2.5h1.092a4.2,4.2,0,0,1-.947,2.506,2.773,2.773,0,0,1-2.179.931q-3.259,0-3.253-5.083c0-3.378,1.114-5.059,3.336-5.059a2.63,2.63,0,0,1,2.361,1.141,6.566,6.566,0,0,1,.754,3.568v.4H776.7v.456q0,3.655,2.065,3.658c1.188,0,1.863-.841,2.051-2.524" transform="translate(-744.611 -183.431)" fill="#1e1e1e"/>
        <path id="Trazado_27" data-name="Trazado 27" d="M780.195,193.47a6.54,6.54,0,0,0,.655,3.436,1.644,1.644,0,0,0,1.465.734,1.679,1.679,0,0,0,1.481-.734,9.5,9.5,0,0,0,0-6.857,1.682,1.682,0,0,0-1.481-.725,1.647,1.647,0,0,0-1.465.725,6.448,6.448,0,0,0-.655,3.421m4.352,4.857v-1.609h-.038a2.346,2.346,0,0,1-.869,1.336,2.426,2.426,0,0,1-1.506.5q-3.107,0-3.112-5.081c0-3.38,1.047-5.058,3.131-5.058a2.062,2.062,0,0,1,2.284,1.678v-4.806h1.1v13.043Z" transform="translate(-740.297 -185.161)" fill="#1e1e1e"/>
        <path id="Trazado_28" data-name="Trazado 28" d="M784.773,196.688v-9.824h1.868v1.15h.06a2.529,2.529,0,0,1,2.354-1.405,2.16,2.16,0,0,1,2.282,1.5,2.756,2.756,0,0,1,2.492-1.5c1.591,0,2.385.864,2.385,2.611v7.468h-1.971v-6.739c0-1.186-.392-1.777-1.192-1.777a1.4,1.4,0,0,0-1.072.479,2.016,2.016,0,0,0-.494,1.443v6.593h-1.978v-6.739q0-1.779-1.2-1.777a1.42,1.42,0,0,0-1.078.479,2.079,2.079,0,0,0-.479,1.443v6.593Z" transform="translate(-733.182 -183.522)" fill="#1e1e1e"/>
        <path id="Trazado_29" data-name="Trazado 29" d="M795.581,193.146V191.5a3.78,3.78,0,0,1-1.081.508c-.64.221-1.013.354-1.116.4a1.593,1.593,0,0,0-.805,1.591,1.623,1.623,0,0,0,.313,1.045,1.082,1.082,0,0,0,.918.432c1.177,0,1.771-.776,1.771-2.336m1.866-4.128v5.647c0,.461.168.694.5.694a.625.625,0,0,0,.338-.078v1.3a2.286,2.286,0,0,1-.978.237c-1.056,0-1.607-.436-1.658-1.32h-.04a2.593,2.593,0,0,1-2.44,1.447c-1.714,0-2.564-.922-2.564-2.754a3.264,3.264,0,0,1,.638-2.235,3.42,3.42,0,0,1,1.646-.857l1.535-.421a2.053,2.053,0,0,0,.837-.387,1.093,1.093,0,0,0,.318-.875c0-.973-.448-1.465-1.355-1.465q-1.5,0-1.5,1.886H790.87a3.311,3.311,0,0,1,.747-2.394,3.64,3.64,0,0,1,2.7-.837,3.9,3.9,0,0,1,2.217.544,2.133,2.133,0,0,1,.915,1.866" transform="translate(-725.962 -183.522)" fill="#1e1e1e"/>
        <path id="Trazado_30" data-name="Trazado 30" d="M794.17,189.727v-1.457h1.354v-2.8h1.971v2.8h1.611v1.457h-1.611v5.886a1.232,1.232,0,0,0,.2.81.848.848,0,0,0,.7.233,2.949,2.949,0,0,0,.716-.076v1.481a6.593,6.593,0,0,1-1.591.166,2.056,2.056,0,0,1-1.5-.439,2.87,2.87,0,0,1-.492-1.942v-6.119Z" transform="translate(-721.555 -184.926)" fill="#1e1e1e"/>
        <path id="Trazado_31" data-name="Trazado 31" d="M796.833,198.327V185.284h1.973v4.273l.052.036a2.741,2.741,0,0,1,2.421-1.345c1.624,0,2.447.888,2.447,2.662v7.417h-1.977v-6.739a2.266,2.266,0,0,0-.309-1.358,1.249,1.249,0,0,0-1.065-.418,1.412,1.412,0,0,0-1.076.479,2.023,2.023,0,0,0-.492,1.443v6.593Z" transform="translate(-718.26 -185.161)" fill="#1e1e1e"/>
        <path id="Trazado_32" data-name="Trazado 32" d="M802.61,190.681h3.159v-.53c0-1.459-.5-2.2-1.517-2.2-1.09,0-1.642.846-1.642,2.528Zm5.137,1.351H802.61v.573c0,1.993.552,2.991,1.642,2.991a1.339,1.339,0,0,0,1.246-.734,2.908,2.908,0,0,0,.327-1.457h1.87a3.58,3.58,0,0,1-.926,2.586,3.361,3.361,0,0,1-2.533.958,3.23,3.23,0,0,1-2.391-.805c-.81-.787-1.2-2.2-1.2-4.222q0-5.316,3.636-5.314a3.089,3.089,0,0,1,2.754,1.166,5.633,5.633,0,0,1,.716,3.217Z" transform="translate(-713.549 -183.522)" fill="#1e1e1e"/>
        <path id="Trazado_33" data-name="Trazado 33" d="M804.584,196.688v-9.824h1.866v1.15h.056a2.541,2.541,0,0,1,2.353-1.405,2.163,2.163,0,0,1,2.289,1.5,2.746,2.746,0,0,1,2.486-1.5c1.595,0,2.4.864,2.4,2.611v7.468h-1.976v-6.739c0-1.186-.4-1.777-1.183-1.777a1.407,1.407,0,0,0-1.081.479,2,2,0,0,0-.49,1.443v6.593h-1.973v-6.739c0-1.186-.409-1.777-1.211-1.777a1.377,1.377,0,0,0-1.071.479,2.042,2.042,0,0,0-.488,1.443v6.593Z" transform="translate(-708.67 -183.522)" fill="#1e1e1e"/>
        <path id="Trazado_34" data-name="Trazado 34" d="M815.393,193.146V191.5a3.957,3.957,0,0,1-1.081.508c-.647.221-1.02.354-1.119.4a1.594,1.594,0,0,0-.8,1.591,1.661,1.661,0,0,0,.311,1.045,1.078,1.078,0,0,0,.91.432q1.776,0,1.779-2.336m1.859-4.128v5.647c0,.461.168.694.51.694a.591.591,0,0,0,.331-.078v1.3a2.253,2.253,0,0,1-.966.237c-1.067,0-1.613-.436-1.669-1.32h-.036a2.6,2.6,0,0,1-2.45,1.447c-1.7,0-2.555-.922-2.555-2.754a3.242,3.242,0,0,1,.645-2.235,3.392,3.392,0,0,1,1.643-.857l1.532-.421a2.111,2.111,0,0,0,.842-.387,1.115,1.115,0,0,0,.315-.875c0-.973-.454-1.465-1.358-1.465-.993,0-1.495.629-1.495,1.886h-1.862a3.289,3.289,0,0,1,.75-2.394,3.63,3.63,0,0,1,2.7-.837,3.882,3.882,0,0,1,2.21.544,2.116,2.116,0,0,1,.912,1.866" transform="translate(-701.453 -183.522)" fill="#1e1e1e"/>
        <path id="Trazado_35" data-name="Trazado 35" d="M813.977,189.727v-1.457h1.358v-2.8h1.976v2.8h1.606v1.457h-1.606v5.886a1.268,1.268,0,0,0,.19.81.858.858,0,0,0,.7.233,2.946,2.946,0,0,0,.716-.076v1.481a6.57,6.57,0,0,1-1.59.166,2.058,2.058,0,0,1-1.5-.439,2.86,2.86,0,0,1-.492-1.942v-6.119Z" transform="translate(-697.048 -184.926)" fill="#1e1e1e"/>
        <path id="Trazado_36" data-name="Trazado 36" d="M816.684,198.4h1.971v-9.824h-1.971Zm0-11.2h1.971v-1.969h-1.971Z" transform="translate(-693.699 -185.229)" fill="#1e1e1e"/>
        <path id="Trazado_37" data-name="Trazado 37" d="M823.458,193.109h1.868a4.987,4.987,0,0,1-.83,2.794,3.006,3.006,0,0,1-2.544,1.047,3.119,3.119,0,0,1-2.9-1.45,9.428,9.428,0,0,1,0-7.452,3.151,3.151,0,0,1,2.888-1.439,3.021,3.021,0,0,1,2.8,1.3,4.011,4.011,0,0,1,.588,2.226h-1.98c0-1.385-.47-2.078-1.405-2.065a1.423,1.423,0,0,0-1.371,1.04,8.091,8.091,0,0,0-.316,2.667,7.934,7.934,0,0,0,.32,2.667,1.383,1.383,0,0,0,1.378,1.04c1,.018,1.506-.776,1.506-2.374" transform="translate(-691.718 -183.522)" fill="#1e1e1e"/>
        <path id="Trazado_38" data-name="Trazado 38" d="M828.43,189.728h-1.862v-.255c0-1.007-.432-1.519-1.294-1.519-.951,0-1.416.436-1.416,1.282a1.188,1.188,0,0,0,.3.864,2.827,2.827,0,0,0,1.094.582l1.261.445a3.286,3.286,0,0,1,1.622,1.031,2.831,2.831,0,0,1,.517,1.792,2.686,2.686,0,0,1-1.027,2.282,3.926,3.926,0,0,1-2.5.716,3.354,3.354,0,0,1-2.542-.821,3.1,3.1,0,0,1-.7-2.228v-.369h1.756v.311c0,1.166.512,1.754,1.535,1.754q1.611,0,1.611-1.445a1.427,1.427,0,0,0-1.081-1.436l-1.608-.575a3.351,3.351,0,0,1-1.613-1.036,2.887,2.887,0,0,1-.483-1.794,2.372,2.372,0,0,1,.893-2.027,3.989,3.989,0,0,1,2.463-.671c2.047,0,3.072.888,3.072,2.683Z" transform="translate(-687.262 -183.522)" fill="#1e1e1e"/>
      </g>
    </g>
  </g>
</svg>
